Coordinates
version=1
nRows=13
nColumns=34
inDegrees=yes

Units are S.I. units (second, meters, Newtons, ...)
If the header above contains a line with 'inDegrees', this indicates whether rotational values are in degrees (yes) or radians (no).

endheader
time	pelvis_tilt	pelvis_list	pelvis_rotation	pelvis_tx	pelvis_ty	pelvis_tz	hip_flexion_r	hip_adduction_r	hip_rotation_r	knee_angle_r	ankle_angle_r	subtalar_angle_r	mtp_angle_r	hip_flexion_l	hip_adduction_l	hip_rotation_l	knee_angle_l	ankle_angle_l	subtalar_angle_l	mtp_angle_l	lumbar_extension	lumbar_bending	lumbar_rotation	arm_flex_r	arm_add_r	arm_rot_r	elbow_flex_r	pro_sup_r	arm_flex_l	arm_add_l	arm_rot_l	elbow_flex_l	pro_sup_l
      0.00000000	    -16.01894008	     -5.78059122	      5.52427420	      0.83313283	      0.82562472	     -0.11236637	     23.91987420	      1.56343447	    -23.31235005	      0.00000000	      8.63710393	     -0.89000209	      0.00000000	      5.18455542	     -5.33764854	     -7.03040542	      0.00000000	     12.78353634	     12.06096892	      0.00000000	      4.24652569	      8.56483079	      1.86817650	    -26.88342511	     -3.98112119	    -11.09879831	     44.98342595	     82.69102945	     -0.11845387	    -19.13673970	     24.14659731	     50.90649318	     79.63761844
      0.01666670	    -18.60432121	     -6.81954943	      7.76018933	      0.84315644	      0.82481244	     -0.11356514	     27.18349767	      1.71390896	    -26.17441699	      0.00000000	     10.53945564	      0.95657278	      0.00000000	      8.36343814	     -6.01449520	     -7.48370571	      0.00000000	     13.22779772	     14.49346838	      0.00000000	      7.00856102	      9.10561189	      1.03093229	    -26.12236404	     -2.83516449	    -11.13660391	     40.08982484	     82.76458560	      1.67806495	    -17.90237467	     22.18287365	     49.22038335	     79.51922730
      0.03333330	    -18.96242876	     -6.72590067	      8.47836513	      0.85864713	      0.82627108	     -0.11204495	     26.94784705	      2.01411700	    -28.80536414	      0.00000000	     10.88610634	      3.05593127	      0.00000000	      8.49057604	     -5.99905248	     -9.06865749	      0.00000000	     13.94707344	     17.11169658	      0.00000000	      7.36843273	      8.79163427	      0.08112194	    -25.79281773	     -2.72252827	    -10.03979453	     38.81894897	     83.04412080	      1.66292395	    -18.20673796	     22.73340067	     48.20580429	     80.01471412
      0.05000000	    -18.94838212	     -7.06349417	      9.56812257	      0.86962590	      0.82608545	     -0.11138623	     26.11918090	      2.41673606	    -30.53362147	      0.00000000	      9.85661304	      3.23603466	      0.00000000	      8.24527057	     -6.30472919	     -9.55332354	      0.00000000	     13.86642729	     18.16660773	      0.00000000	      7.29485222	      9.14380013	     -0.66616334	    -25.96107493	     -2.77711506	    -10.00531670	     38.96544274	     83.13649316	      1.82885087	    -18.25963524	     22.87395079	     47.79804097	     80.25972567
      0.06666670	    -18.90684354	     -7.49655644	     10.40692929	      0.88111886	      0.82421108	     -0.11031156	     25.10605554	      3.12211626	    -32.76869198	      0.00000000	      9.75996824	      3.71198307	      0.00000000	      7.75606267	     -6.88620574	    -10.78414871	      0.00000000	     14.61944676	     20.83505176	      0.00000000	      7.37513225	      9.92193994	     -1.55597585	    -26.48834103	     -2.73144018	    -11.06293238	     40.43969928	     83.94187147	      1.65423782	    -18.11150763	     23.32020909	     46.17357666	     81.59646440
      0.08333330	    -18.90337162	     -8.17993056	     11.51976110	      0.89305740	      0.82247488	     -0.10963859	     24.31318815	      3.87521470	    -34.72636780	      0.00000000	      8.44062724	      2.60954630	      0.00000000	      7.31258049	     -7.74820044	    -10.47810078	      0.00000000	     14.75858224	     21.56869421	      0.00000000	      7.51765819	     10.76152605	     -2.72445573	    -26.64186375	     -2.76911271	    -11.72310015	     40.65930461	     84.19096319	      1.32356580	    -17.96341928	     23.74864464	     45.28628414	     81.99859333
      0.10000000	    -18.63802607	     -8.96013412	     12.71043862	      0.90762645	      0.82143179	     -0.10954806	     23.44017642	      4.70077528	    -36.51556318	      0.00000000	      7.13308239	      0.68400947	      0.00000000	      6.51526336	     -8.80397755	    -10.49599487	      0.00000000	     14.99786798	     22.59714557	      0.00000000	      7.72927868	     12.12824526	     -1.32135920	    -28.40232087	     -0.84002557	    -19.00789370	     42.99294806	     91.01457031	      3.95578525	    -16.77348395	     27.77617859	     39.88555348	     88.10553896
      0.11666670	    -18.79954529	     -9.85831192	     13.74895051	      0.92333092	      0.82027097	     -0.10900370	     23.05551233	      5.59793786	    -39.02815722	      0.00000000	      5.40406479	     -0.48434588	      0.00000000	      6.05176020	     -9.98024863	    -10.44010040	      0.00000000	     14.89222824	     23.29821549	      0.00000000	      8.33931769	     13.02417662	     -2.47812498	    -28.53900289	     -1.22613380	    -19.20876033	     43.38576478	     91.19894079	      3.00844046	    -16.54316266	     28.23287500	     39.23778887	     88.17193583
      0.13333330	    -19.08121348	    -10.55793059	     14.42107838	      0.93784431	      0.82015422	     -0.10748037	     22.60475569	      6.45594109	    -39.99999995	      0.00000000	      3.51956273	     -2.67159542	      0.00000000	      5.59097662	    -10.97402444	    -10.78061369	      0.00000000	     14.82097554	     23.90399397	      0.00000000	      8.97930048	     13.68451501	     -3.63250798	    -28.42795749	     -1.69612019	    -19.50791451	     44.81039010	     91.47966104	      1.88985933	    -16.31800500	     28.37896191	     38.35376399	     88.16987993
      0.15000000	    -19.59820719	    -11.12412497	     14.63174493	      0.95887732	      0.81974601	     -0.10564928	     21.79697263	      7.44743123	    -39.99999995	      0.00000000	      1.27555106	     -5.12220441	      0.00000000	      5.15285268	    -11.88447941	    -11.36217076	      0.00000000	     14.57939260	     24.37850344	      0.00000000	      9.82321493	     14.14674387	     -3.89886565	    -28.92704507	     -1.94703695	    -19.91479222	     46.15508762	     91.78834153	      0.45419121	    -15.99518592	     27.94009986	     38.00294815	     88.03929310
      0.16666670	    -20.14688243	    -11.61400283	     14.79019961	      0.97323476	      0.81894837	     -0.10299067	     20.83356945	      8.42111808	    -39.99999995	      0.00000000	      0.75952767	     -5.79905287	      0.00000000	      4.86700698	    -12.69247087	    -11.83607271	      0.00000000	     14.35585456	     24.38765661	      0.00000000	     10.63616521	     14.47178102	     -3.83264314	    -29.21802984	     -2.16769762	    -20.21032364	     46.68370161	     91.88559512	     -0.66463049	    -15.69532261	     27.77108241	     37.78745125	     87.98109047
      0.18333330	    -20.88474882	    -11.85365150	     15.10504568	      0.98485015	      0.81660729	     -0.10076759	     20.15152696	      8.92520064	    -39.99999995	      0.00000000	     -0.67815379	     -7.46226624	      0.00000000	      4.94989137	    -13.16457865	    -12.32072789	      0.00000000	     14.08256000	     25.07880026	      0.00000000	     11.31457328	     14.54416962	     -5.45162711	    -29.23080096	     -2.25332897	    -22.14388181	     48.78718904	     95.34362169	     -4.16400548	    -14.82725772	     21.12384294	     38.84884252	     87.53042719
      0.20000000	    -21.57677869	    -12.21223253	     15.39954221	      0.99271717	      0.81483130	     -0.09883538	     19.83613055	      9.47677783	    -39.99999995	      0.00000000	     -1.74473272	     -9.05470283	      0.00000000	      5.15457741	    -13.71192371	    -12.79260744	      0.00000000	     13.41688606	     25.46106611	      0.00000000	     12.16860400	     14.72432849	     -5.39014825	    -29.81533690	     -2.45728207	    -21.88363956	     50.18033096	     95.63888774	     -5.26156648	    -14.59412857	     20.59615880	     38.70975947	     87.69540664
